# xmcd
#
# Track frame offsets:
# 262
# 24892
# 51468
# 78929
# 102569
#
# Disc length: 1681 seconds
#
# Revision: 1
# Processed by: cddbd v1.5.2PL0 Copyright (c) Steve Scherf et al.
# Submitted via: CedeCatalogueitor 2.6.0.6 http://personales.ya.com/cdcatalogueitor
#
DISCID=37068e05
DTITLE=Galactiva - Rmx
DYEAR=1900
DGENRE=
TTITLE0=Pasados Desencuentros Rmx (zabriskie)
TTITLE1=Dinastia IV (Diego Cadierno)
TTITLE2=Elektronikato X (Diego Cadierno)
TTITLE3=Bela Lugosi (Esta Noche Mix) (Lofi)
TTITLE4=Vampiras En Berlin (Electroboy)
EXTD=
EXTT0=
EXTT1=
EXTT2=
EXTT3=
EXTT4=
PLAYORDER=
